<?xml version="1.0" encoding="UTF-8"?>
<svg id="Layer_1" data-name="Layer 1" xmlns="http://www.w3.org/2000/svg" viewBox="0 0 278.04 245.59">
  <defs>
    <style>
      .cls-1 {
        fill: #fff;
      }

      .cls-1, .cls-2, .cls-3 {
        stroke-width: 0px;
      }

      .cls-2 {
        fill: #fee5c8;
      }

      .cls-3 {
        fill: #e4973d;
      }
    </style>
  </defs>
  <ellipse class="cls-3" cx="136.59" cy="151.26" rx="111.21" ry="83.54"/>
  <ellipse class="cls-3" cx="135.87" cy="91.48" rx="111.21" ry="75.62"/>
  <rect class="cls-3" x="24.65" y="91.48" width="222.42" height="95.07" rx="5" ry="5"/>
  <path class="cls-3" d="m31.41,8.99c-.05-6.26,6.24-10.6,12.18-8.42l50.65,18.64c6.85,2.52,8.05,11.6,2.08,15.73l-50.24,34.74c-5.97,4.13-14.2-.09-14.25-7.31l-.42-53.38Z"/>
  <path class="cls-2" d="m42.36,19.71c.07-4.73,4.79-7.99,9.32-6.44l16.9,5.79c5.44,1.86,6.47,9.03,1.77,12.29l-17.17,11.88c-4.7,3.25-11.17-.16-11.09-5.84l.27-17.67Z"/>
  <path class="cls-3" d="m200.94,28.81c-6.54.89-9.99,8.2-6.47,13.71l29.89,46.9c3.81,5.97,12.78,5.37,15.82-1.06l25.7-54.43c3.04-6.43-2.27-13.61-9.34-12.65l-55.59,7.53Z"/>
  <path class="cls-2" d="m246.87,55.68c-2.08,4.24-7.71,5.22-11.13,1.94l-12.83-12.29c-4.15-3.97-2.04-10.95,3.61-11.93l20.63-3.59c5.64-.98,10.04,4.86,7.52,9.99l-7.8,15.88Z"/>
  <ellipse class="cls-1" cx="137.32" cy="124.6" rx="80.32" ry="79.94"/>
  <path class="cls-3" d="m41.05,163.49h14.16c22.67,0,41.05,18.38,41.05,41.05h0c0,22.67-18.38,41.05-41.05,41.05h-14.16c-22.67,0-41.05-18.38-41.05-41.05h0c0-22.67,18.38-41.05,41.05-41.05Z"/>
  <path class="cls-3" d="m222.83,156.93h14.16c22.67,0,41.05,18.38,41.05,41.05h0c0,22.67-18.38,41.05-41.05,41.05h-14.16c-22.67,0-41.05-18.38-41.05-41.05h0c0-22.67,18.38-41.05,41.05-41.05Z"/>
</svg>